<svg xmlns="http://www.w3.org/2000/svg" width="800" height="800" viewBox="0 0 800 800">
  <metadata><?xpacket begin="﻿" id="W5M0MpCehiHzreSzNTczkc9d"?>
<x:xmpmeta xmlns:x="adobe:ns:meta/" x:xmptk="Adobe XMP Core 5.6-c138 79.159824, 2016/09/14-01:09:01        ">
   <rdf:RDF xmlns:rdf="http://www.w3.org/1999/02/22-rdf-syntax-ns#">
      <rdf:Description rdf:about=""/>
   </rdf:RDF>
</x:xmpmeta>
                                                                                                    
                                                                                                    
                                                                                                    
                                                                                                    
                                                                                                    
                                                                                                    
                                                                                                    
                                                                                                    
                                                                                                    
                                                                                                    
                                                                                                    
                                                                                                    
                                                                                                    
                                                                                                    
                                                                                                    
                                                                                                    
                                                                                                    
                                                                                                    
                                                                                                    
                                                                                                    
                           
<?xpacket end="w"?></metadata>
<defs>
    <style>
      .cls-1, .cls-2 {
        fill: #fff;
        fill-rule: evenodd;
      }

      .cls-1 {
        opacity: 0.36;
      }
    </style>
  </defs>
  <path id="tech" class="cls-1" d="M204.346,464.377V501.24h10.329V464.377h14.3v-9.385H190.049v9.385h14.3ZM351.652,501.24v-9.063h-25.61V482.47h22.233v-9.063H326.042v-9.352h25.25v-9.063H315.844V501.24h35.808Zm91.614-13.674a22.874,22.874,0,0,0,5.033,7.562,23.742,23.742,0,0,0,7.657,5.064,24.62,24.62,0,0,0,9.608,1.854,30.852,30.852,0,0,0,6.165-.564,22.141,22.141,0,0,0,5.066-1.661,23.468,23.468,0,0,0,4.279-2.612,32.632,32.632,0,0,0,3.771-3.419l-6.591-6.547a26.335,26.335,0,0,1-5.542,3.967,14.634,14.634,0,0,1-6.82,1.451,13.1,13.1,0,0,1-5.542-1.161,12.925,12.925,0,0,1-4.3-3.144,14.926,14.926,0,0,1-2.787-4.628,15.5,15.5,0,0,1-1.016-5.612v-0.129a15.238,15.238,0,0,1,1.016-5.579,14.669,14.669,0,0,1,2.82-4.6,12.693,12.693,0,0,1,4.329-3.1,13.421,13.421,0,0,1,5.476-1.113,14.654,14.654,0,0,1,6.427,1.371,24.364,24.364,0,0,1,5.607,3.822l6.558-7.45a27.414,27.414,0,0,0-3.492-2.9,21.39,21.39,0,0,0-4.1-2.241,25.711,25.711,0,0,0-4.935-1.452,31.33,31.33,0,0,0-6-.532,25.4,25.4,0,0,0-9.935,1.887,23.3,23.3,0,0,0-12.756,12.723,23.86,23.86,0,0,0-1.8,9.288v0.129A24.1,24.1,0,0,0,443.266,487.566ZM581.541,501.24V482.7h19.085V501.24h10.329V454.992H600.626v18.319H581.541V454.992H571.212V501.24h10.329Z"/>
  <path id="ileo" class="cls-2" d="M214.648,346.023V299.775h-10.33v46.248h10.33Zm124.505,0v-9.256H315.708V299.775H305.379v46.248h33.774Zm124.484,0V336.96H438.028v-9.707H460.26V318.19H438.028v-9.352h25.249v-9.063H427.83v46.248h35.807Zm91.647-13.707a22.633,22.633,0,0,0,5.164,7.531,25,25,0,0,0,7.887,5.1,25.892,25.892,0,0,0,10,1.887,26.26,26.26,0,0,0,10.05-1.887,24.288,24.288,0,0,0,7.936-5.16,23.8,23.8,0,0,0,5.2-7.595,23.144,23.144,0,0,0,1.869-9.288V322.77a23.539,23.539,0,0,0-1.836-9.272,22.447,22.447,0,0,0-5.164-7.531,25.124,25.124,0,0,0-7.9-5.079,27.536,27.536,0,0,0-20.036,0,24.434,24.434,0,0,0-7.935,5.144,23.617,23.617,0,0,0-5.2,7.579,23.145,23.145,0,0,0-1.87,9.288v0.129A23.487,23.487,0,0,0,555.284,332.316Zm8.952-9.546a14.9,14.9,0,0,1,3.935-10.175,12.845,12.845,0,0,1,4.427-3.1,14.383,14.383,0,0,1,5.738-1.113,14,14,0,0,1,13.215,8.9A15.088,15.088,0,0,1,592.6,322.9v0.129a14.834,14.834,0,0,1-1.049,5.579,14.681,14.681,0,0,1-2.9,4.6,13.151,13.151,0,0,1-4.476,3.112,14.275,14.275,0,0,1-5.706,1.129,13.871,13.871,0,0,1-5.738-1.161,14.064,14.064,0,0,1-7.444-7.772,15.068,15.068,0,0,1-1.049-5.612V322.77Z"/>
</svg>
